# xmcd
#
# Track frame offsets: 
#        183
#        16828
#        34740
#        51205
#        65805
#        79115
#        91705
#        103783
#        113498
#        131350
#        147783
#        159755
#        174700
#        186318
#        204205
#        216613
#
# Disc length: 3031 seconds
#
# Revision: 1
# Processed by: cddbd v1.5.2PL0 Copyright (c) Steve Scherf et al.
# Submitted via: ExactAudioCopyFreeDBPlugin 1.0
#
DISCID=d50bd510
DTITLE=Rod Stewart - In A Broken Dream
DYEAR=1900
DGENRE=Blues
TTITLE0=In A Broken Dream
TTITLE1=The Blues
TTITLE2=Cloude Nine
TTITLE3=Sparky Rides
TTITLE4=Red Ballroom
TTITLE5=Why Does It Goes On
TTITLE6=The Day Will Come
TTITLE7=Keep Your Hands Off Her
TTITLE8=Just A Little Misunderstood
TTITLE9=I Just Got Some
TTITLE10=Shake
TTITLE11=Bright Lights, Big City
TTITLE12=Ain't That Loving You Baby
TTITLE13=Don't You Tell Nobody
TTITLE14=Moopers Blues
TTITLE15=Just Like A Treat You
EXTD=
EXTT0=
EXTT1=
EXTT2=
EXTT3=
EXTT4=
EXTT5=
EXTT6=
EXTT7=
EXTT8=
EXTT9=
EXTT10=
EXTT11=
EXTT12=
EXTT13=
EXTT14=
EXTT15=
PLAYORDER=
